<?xml version="1.0" standalone="no"?>
<!DOCTYPE svg PUBLIC "-//W3C//DTD SVG 20010904//EN" "http://www.w3.org/TR/2001/REC-SVG-20010904/DTD/svg10.dtd">
<!-- Created using Krita: https://krita.org -->
<svg xmlns="http://www.w3.org/2000/svg" 
    xmlns:xlink="http://www.w3.org/1999/xlink"
    xmlns:krita="http://krita.org/namespaces/svg/krita"
    xmlns:sodipodi="http://sodipodi.sourceforge.net/DTD/sodipodi-0.dtd"
    width="120pt"
    height="120pt"
    viewBox="0 0 120 120">
<defs/>
<path id="shape0" transform="translate(20.88, 24)" fill="none" stroke="#030303" stroke-width="1.2" stroke-linecap="square" stroke-linejoin="miter" stroke-miterlimit="2" d="M0 0L10.08 7.68" sodipodi:nodetypes="cc"/><path id="shape1" transform="translate(32.88, 36)" fill="none" stroke="#030303" stroke-width="1.2" stroke-linecap="square" stroke-linejoin="miter" stroke-miterlimit="2" d="M0 0L10.32 3.12" sodipodi:nodetypes="cc"/><path id="shape2" transform="translate(23.2800005582473, 31.560000758286)" fill="none" stroke="#030303" stroke-width="1.2" stroke-linecap="square" stroke-linejoin="miter" stroke-miterlimit="2" d="M9.6 16.44L0 0" sodipodi:nodetypes="cc"/><path id="shape3" transform="translate(32.88, 60)" fill="none" stroke="#030303" stroke-width="1.2" stroke-linecap="square" stroke-linejoin="miter" stroke-miterlimit="2" d="M0 0L1.44 6.84" sodipodi:nodetypes="cc"/><path id="shape4" transform="translate(20.88, 60)" fill="none" stroke="#030303" stroke-width="1.2" stroke-linecap="square" stroke-linejoin="miter" stroke-miterlimit="2" d="M0 0L6.84 2.4" sodipodi:nodetypes="cc"/><path id="shape5" transform="translate(20.8800004652061, 72)" fill="none" stroke="#030303" stroke-width="1.2" stroke-linecap="square" stroke-linejoin="miter" stroke-miterlimit="2" d="M0 0L1.44 2.28" sodipodi:nodetypes="cc"/><path id="shape6" transform="translate(20.88, 69.8400012635911)" fill="none" stroke="#030303" stroke-width="1.2" stroke-linecap="square" stroke-linejoin="miter" stroke-miterlimit="2" d="M0 14.16L5.13 0" sodipodi:nodetypes="cc"/><path id="shape7" transform="translate(32.88, 78.2400025679379)" fill="none" stroke="#030303" stroke-width="1.2" stroke-linecap="square" stroke-linejoin="miter" stroke-miterlimit="2" d="M0 5.76L3.36 0" sodipodi:nodetypes="cc"/><path id="shape8" transform="translate(27.6748977856089, 72)" fill="none" stroke="#030303" stroke-width="1.2" stroke-linecap="square" stroke-linejoin="miter" stroke-miterlimit="2" d="M17.0851 0L0 0.924319" sodipodi:nodetypes="cc"/><path id="shape9" transform="translate(24.60000060942, 81.9600027121517)" fill="none" stroke="#030303" stroke-width="1.2" stroke-linecap="square" stroke-linejoin="miter" stroke-miterlimit="2" d="M20.28 2.04L0 0" sodipodi:nodetypes="cc"/><path id="shape10" transform="translate(20.88, 89.5200030052316)" fill="none" stroke="#030303" stroke-width="1.2" stroke-linecap="square" stroke-linejoin="miter" stroke-miterlimit="2" d="M0 6.48L3.96 0" sodipodi:nodetypes="cc"/><path id="shape11" transform="translate(20.88, 98.4000033494842)" fill="none" stroke="#030303" stroke-width="1.2" stroke-linecap="square" stroke-linejoin="miter" stroke-miterlimit="2" d="M0 9.6L2.64 0" sodipodi:nodetypes="cc"/><path id="shape12" transform="translate(32.88, 98.5200033541362)" fill="none" stroke="#030303" stroke-width="1.2" stroke-linecap="square" stroke-linejoin="miter" stroke-miterlimit="2" d="M0 9.48L10.32 0" sodipodi:nodetypes="cc"/><path id="shape13" transform="translate(40.200001214188, 85.4400028470615)" fill="none" stroke="#030303" stroke-width="1.2" stroke-linecap="square" stroke-linejoin="miter" stroke-miterlimit="2" d="M4.68 10.56L0 0" sodipodi:nodetypes="cc"/><path id="shape14" transform="translate(44.88, 51.0000015119199)" fill="none" stroke="#030303" stroke-width="1.2" stroke-linecap="square" stroke-linejoin="miter" stroke-miterlimit="2" d="M0 9L7.32 0" sodipodi:nodetypes="cc"/><path id="shape15" transform="translate(56.88, 52.2000015584405)" fill="none" stroke="#030303" stroke-width="1.2" stroke-linecap="square" stroke-linejoin="miter" stroke-miterlimit="2" d="M0 7.8L0 0" sodipodi:nodetypes="cc"/><path id="shape16" transform="translate(56.5200018468683, 72)" fill="none" stroke="#030303" stroke-width="1.2" stroke-linecap="square" stroke-linejoin="miter" stroke-miterlimit="2" d="M0 0L15 2.04" sodipodi:nodetypes="cc"/><path id="shape17" transform="translate(68.88, 72)" fill="none" stroke="#030303" stroke-width="1.2" stroke-linecap="square" stroke-linejoin="miter" stroke-miterlimit="2" d="M0 0L6.24 8.52" sodipodi:nodetypes="cc"/><path id="shape18" transform="translate(68.88, 78.1200025632858)" fill="none" stroke="#030303" stroke-width="1.2" stroke-linecap="square" stroke-linejoin="miter" stroke-miterlimit="2" d="M0 6L8.04 0" sodipodi:nodetypes="cc"/><path id="shape19" transform="translate(56.88, 84)" fill="none" stroke="#030303" stroke-width="1.2" stroke-linecap="square" stroke-linejoin="miter" stroke-miterlimit="2" d="M0 0L8.64 2.64" sodipodi:nodetypes="cc"/><path id="shape20" transform="translate(50.1600016003091, 86.280002879626)" fill="none" stroke="#030303" stroke-width="1.2" stroke-linecap="square" stroke-linejoin="miter" stroke-miterlimit="2" d="M6.72 9.72L0 0" sodipodi:nodetypes="cc"/><path id="shape21" transform="translate(32.88, 108)" fill="none" stroke="#030303" stroke-width="1.2" stroke-linecap="square" stroke-linejoin="miter" stroke-miterlimit="2" d="M0 0L17.28 9.12" sodipodi:nodetypes="cc"/><path id="shape22" transform="translate(44.88, 108)" fill="none" stroke="#030303" stroke-width="1.2" stroke-linecap="square" stroke-linejoin="miter" stroke-miterlimit="2" d="M0 0L6.48 6.72" sodipodi:nodetypes="cc"/><path id="shape23" transform="translate(56.88, 108)" fill="none" stroke="#030303" stroke-width="1.2" stroke-linecap="square" stroke-linejoin="miter" stroke-miterlimit="2" d="M0 0L5.64 5.64" sodipodi:nodetypes="cc"/><path id="shape24" transform="translate(68.88, 98.6400033587883)" fill="none" stroke="#030303" stroke-width="1.2" stroke-linecap="square" stroke-linejoin="miter" stroke-miterlimit="2" d="M0 9.24L6 0" sodipodi:nodetypes="cc"/><path id="shape25" transform="translate(80.88, 86.5200028889301)" fill="none" stroke="#030303" stroke-width="1.2" stroke-linecap="square" stroke-linejoin="miter" stroke-miterlimit="2" d="M0 9.48L8.52 0" sodipodi:nodetypes="cc"/><path id="shape26" transform="translate(92.88, 74.0400024051157)" fill="none" stroke="#030303" stroke-width="1.2" stroke-linecap="square" stroke-linejoin="miter" stroke-miterlimit="2" d="M0 9.96L6.6 0" sodipodi:nodetypes="cc"/><path id="shape27" transform="translate(104.88, 40.4400011025385)" fill="none" stroke="#030303" stroke-width="1.2" stroke-linecap="square" stroke-linejoin="miter" stroke-miterlimit="2" d="M0 19.56L8.04 0" sodipodi:nodetypes="cc"/><path id="shape28" transform="translate(104.88, 26.5200005628994)" fill="none" stroke="#030303" stroke-width="1.2" stroke-linecap="square" stroke-linejoin="miter" stroke-miterlimit="2" d="M0 9.48L2.76 0" sodipodi:nodetypes="cc"/><path id="shape29" transform="translate(104.88, 24)" fill="none" stroke="#030303" stroke-width="1.2" stroke-linecap="square" stroke-linejoin="miter" stroke-miterlimit="2" d="M0 0L8.04 12" sodipodi:nodetypes="cc"/><path id="shape30" transform="translate(92.88, 24)" fill="none" stroke="#030303" stroke-width="1.2" stroke-linecap="square" stroke-linejoin="miter" stroke-miterlimit="2" d="M0 12L10.2 0" sodipodi:nodetypes="cc"/><path id="shape31" transform="translate(80.88, 38.7600010374097)" fill="none" stroke="#030303" stroke-width="1.2" stroke-linecap="square" stroke-linejoin="miter" stroke-miterlimit="2" d="M0 9.24L7.56 0" sodipodi:nodetypes="cc"/><path id="shape32" transform="translate(68.88, 42.4800011816236)" fill="none" stroke="#030303" stroke-width="1.2" stroke-linecap="square" stroke-linejoin="miter" stroke-miterlimit="2" d="M0 5.88L12 0" sodipodi:nodetypes="cc"/><path id="shape33" transform="translate(56.88, 42.0000011630153)" fill="none" stroke="#030303" stroke-width="1.2" stroke-linecap="square" stroke-linejoin="miter" stroke-miterlimit="2" d="M0 6L12 0" sodipodi:nodetypes="cc"/><path id="shape34" transform="translate(44.88, 41.6400011490591)" fill="none" stroke="#030303" stroke-width="1.2" stroke-linecap="square" stroke-linejoin="miter" stroke-miterlimit="2" d="M0 6.36L7.68 0" sodipodi:nodetypes="cc"/><path id="shape35" transform="translate(80.8351864226203, 72)" fill="none" stroke="#030303" stroke-width="1.2" stroke-linecap="square" stroke-linejoin="miter" stroke-miterlimit="2" d="M0 0L7.29734 6.27005" sodipodi:nodetypes="cc"/><path id="shape36" transform="translate(80.88, 82.7672470241336)" fill="none" stroke="#030303" stroke-width="1.2" stroke-linecap="square" stroke-linejoin="miter" stroke-miterlimit="2" d="M0 1.23275L7.67679 0" sodipodi:nodetypes="cc"/><path id="shape37" transform="translate(68.88, 90.7434115568297)" fill="none" stroke="#030303" stroke-width="1.2" stroke-linecap="square" stroke-linejoin="miter" stroke-miterlimit="2" d="M0 4.92146L10.5127 0" sodipodi:nodetypes="cc"/><path id="shape38" transform="translate(68.88, 59.9418400103543)" fill="none" stroke="#030303" stroke-width="1.2" stroke-linecap="square" stroke-linejoin="miter" stroke-miterlimit="2" d="M0 0L9.49445 4.58205" sodipodi:nodetypes="cc"/><path id="shape39" transform="translate(80.88, 60)" fill="none" stroke="#030303" stroke-width="1.2" stroke-linecap="square" stroke-linejoin="miter" stroke-miterlimit="2" d="M0 0L7.16768 7.23918" sodipodi:nodetypes="cc"/><path id="shape40" transform="translate(92.88, 60)" fill="none" stroke="#030303" stroke-width="1.2" stroke-linecap="square" stroke-linejoin="miter" stroke-miterlimit="2" d="M0 0L7.38648 7.32403" sodipodi:nodetypes="cc"/><path id="shape41" transform="translate(103.236329365511, 61.8934547364395)" fill="none" stroke="#030303" stroke-width="1.2" stroke-linecap="square" stroke-linejoin="miter" stroke-miterlimit="2" d="M1.6122 10.1065L0 0" sodipodi:nodetypes="cc"/><path id="shape42" transform="translate(92.88, 42.3773080342847)" fill="none" stroke="#030303" stroke-width="1.2" stroke-linecap="square" stroke-linejoin="miter" stroke-miterlimit="2" d="M0 5.62269L12 0" sodipodi:nodetypes="cc"/><path id="shape43" transform="translate(94.0722270011784, 48)" fill="none" stroke="#030303" stroke-width="1.2" stroke-linecap="square" stroke-linejoin="miter" stroke-miterlimit="2" d="M10.8078 0L0 7.86891" sodipodi:nodetypes="cc"/>
</svg>
